<svg xmlns="http://www.w3.org/2000/svg" viewBox="0 0 2299.36 599.75"><defs><style>.cls-1{fill:#fff;}</style></defs><g id="Capa_2" data-name="Capa 2"><g id="Capa_1-2" data-name="Capa 1"><path class="cls-1" d="M342.38,314.11a162.71,162.71,0,0,1-13,64.13,165.82,165.82,0,0,1-37.11,54.31,170.08,170.08,0,0,1-55.51,36.32,174.65,174.65,0,0,1-131.06,0,170,170,0,0,1-55.51-36.32A165.82,165.82,0,0,1,13,378.24,164.21,164.21,0,0,1,13,250a166,166,0,0,1,37.11-54.32,170.14,170.14,0,0,1,55.51-36.32,174.65,174.65,0,0,1,131.06,0,170.89,170.89,0,0,1,20.07,9.82V62.82h85.59ZM171.19,397.87q35.43,0,60.52-24.54t25.08-59.22q0-34.68-25.08-59.22t-60.52-24.54q-35.44,0-60.52,24.54T85.59,314.11q0,34.68,25.08,59.22T171.19,397.87Z"/><path class="cls-1" d="M602.51,253.9q-23.75-23.55-56.17-23.55-35.44,0-60.52,24.54t-25.08,59.22q0,34.68,25.08,59.22t60.52,24.54q35.43,0,60.52-24.54a88.54,88.54,0,0,0,13-16l73.22,42.86a164.27,164.27,0,0,1-25.75,32.39,170,170,0,0,1-55.5,36.32,174.67,174.67,0,0,1-131.07,0,170,170,0,0,1-55.5-36.32,165.82,165.82,0,0,1-37.11-54.31,164.21,164.21,0,0,1,0-128.26,166,166,0,0,1,37.11-54.32,170.2,170.2,0,0,1,55.5-36.32,174.67,174.67,0,0,1,131.07,0,170.2,170.2,0,0,1,55.5,36.32,166.66,166.66,0,0,1,50.16,111.9L525.61,364.82,502.87,284Z"/><path class="cls-1" d="M1190,104.7a52,52,0,0,1-37.78-15.38q-15.72-15.37-15.71-37t15.71-37a54.09,54.09,0,0,1,75.56,0q15.72,15.37,15.72,37t-15.72,37A52.06,52.06,0,0,1,1190,104.7Zm42.8,376.93h-85.6v-335h85.6Z"/><path class="cls-1" d="M1611.26,314.11a162.71,162.71,0,0,1-13,64.13,165.82,165.82,0,0,1-37.11,54.31,170.08,170.08,0,0,1-55.51,36.32,174.65,174.65,0,0,1-131.06,0A170,170,0,0,1,1319,432.55a165.82,165.82,0,0,1-37.11-54.31,164.21,164.21,0,0,1,0-128.26A166,166,0,0,1,1319,195.66a170.14,170.14,0,0,1,55.51-36.32,174.65,174.65,0,0,1,131.06,0,170,170,0,0,1,20.06,9.82V62.82h85.6Zm-171.19,83.76q35.43,0,60.52-24.54t25.07-59.22q0-34.68-25.07-59.22t-60.52-24.54q-35.44,0-60.52,24.54t-25.07,59.22q0,34.68,25.07,59.22T1440.07,397.87Z"/><path class="cls-1" d="M1871.39,253.9q-23.75-23.55-56.17-23.55-35.45,0-60.52,24.54t-25.08,59.22q0,34.68,25.08,59.22t60.52,24.54q35.43,0,60.52-24.54a88.54,88.54,0,0,0,13-16L1962,400.16a164.27,164.27,0,0,1-25.75,32.39,170,170,0,0,1-55.5,36.32,174.67,174.67,0,0,1-131.07,0,170,170,0,0,1-55.5-36.32,165.82,165.82,0,0,1-37.11-54.31,164.21,164.21,0,0,1,0-128.26,166,166,0,0,1,37.11-54.32,170.2,170.2,0,0,1,55.5-36.32,174.67,174.67,0,0,1,131.07,0,170.2,170.2,0,0,1,55.5,36.32,166.66,166.66,0,0,1,50.16,111.9l-191.92,57.26L1771.75,284Z"/><path class="cls-1" d="M1957,146.58h96.3l74.89,157.06,74.9-157.06h96.29l-171.19,335Z"/><path class="cls-1" d="M1089,314.11A162.71,162.71,0,0,0,1076,250a166.15,166.15,0,0,0-37.12-54.32,170.2,170.2,0,0,0-55.5-36.32,174.67,174.67,0,0,0-131.07,0,170.2,170.2,0,0,0-55.5,36.32A166,166,0,0,0,759.66,250a164.21,164.21,0,0,0,0,128.26,165.82,165.82,0,0,0,37.11,54.31,170,170,0,0,0,55.5,36.32,174.67,174.67,0,0,0,131.07,0q7.33-3,14.33-6.69A82.36,82.36,0,0,1,978,491.45Q952.93,516,917.49,516T857,491.45a88.12,88.12,0,0,1-13-16L770.7,518.28a164.56,164.56,0,0,0,25.75,32.39A170,170,0,0,0,852,587,174.67,174.67,0,0,0,983,587a169.94,169.94,0,0,0,55.5-36.32,166,166,0,0,0,37.12-54.31,162.54,162.54,0,0,0,13-62.2l0,0ZM978.32,373.33q-25.07,24.54-60.51,24.54t-60.52-24.54q-25.08-24.54-25.08-59.22t25.08-59.22q25.08-24.55,60.52-24.54t60.51,24.54q25.08,24.53,25.08,59.22T978.32,373.33Z"/></g></g></svg>